G04*
G04 #@! TF.GenerationSoftware,Altium Limited,Altium Designer,25.7.1 (20)*
G04*
G04 Layer_Color=65535*
%FSLAX44Y44*%
%MOMM*%
G71*
G04*
G04 #@! TF.SameCoordinates,1FEF7C1C-ADAA-44E2-BD5A-CF82835D82FB*
G04*
G04*
G04 #@! TF.FilePolarity,Positive*
G04*
G01*
G75*
%ADD10C,0.2000*%
%ADD11C,0.2500*%
%ADD12C,0.2540*%
D10*
X170200Y45000D02*
G03*
X209800Y45000I19800J-15000D01*
G01*
X62500Y5000D02*
G03*
X22900Y5000I-19800J15000D01*
G01*
X170200Y45000D02*
X209800D01*
X12850Y89050D02*
X127150D01*
X12850Y50950D02*
Y89050D01*
Y50950D02*
X127150D01*
Y89050D01*
X132850D02*
X247150D01*
X132850Y50950D02*
Y89050D01*
Y50950D02*
X247150D01*
Y89050D01*
X22900Y5000D02*
X62500D01*
D11*
X219550Y43500D02*
G03*
X219550Y43500I-1250J0D01*
G01*
X15650Y6500D02*
G03*
X15650Y6500I-1250J0D01*
G01*
D12*
X151001Y114500D02*
X169001D01*
Y145500D01*
X151001D02*
X169001D01*
X151001Y114500D02*
Y145500D01*
X101001Y114500D02*
X119001D01*
Y145500D01*
X101001D02*
X119001D01*
X101001Y114500D02*
Y145500D01*
X61000Y114500D02*
X79001D01*
Y145500D01*
X61000D02*
X79001D01*
X61000Y114500D02*
Y145500D01*
X11000Y114500D02*
X29000D01*
Y145500D01*
X11000D02*
X29000D01*
X11000Y114500D02*
Y145500D01*
X230161Y4922D02*
Y15078D01*
X227622Y17617D01*
X222543D01*
X220004Y15078D01*
Y4922D01*
X222543Y2383D01*
X227622D01*
X225082Y7461D02*
X230161Y2383D01*
X227622D02*
X230161Y4922D01*
X245396Y2383D02*
X235239D01*
X245396Y12539D01*
Y15078D01*
X242857Y17617D01*
X237778D01*
X235239Y15078D01*
X40000Y105078D02*
X37461Y107618D01*
X32383D01*
X29843Y105078D01*
Y94922D01*
X32383Y92382D01*
X37461D01*
X40000Y94922D01*
X45078Y92382D02*
X50157D01*
X47618D01*
Y107618D01*
X45078Y105078D01*
X147461D02*
X144922Y107618D01*
X139843D01*
X137304Y105078D01*
Y94922D01*
X139843Y92382D01*
X144922D01*
X147461Y94922D01*
X162696Y92382D02*
X152539D01*
X162696Y102539D01*
Y105078D01*
X160157Y107618D01*
X155078D01*
X152539Y105078D01*
X90000Y4922D02*
Y15078D01*
X87461Y17617D01*
X82382D01*
X79843Y15078D01*
Y4922D01*
X82382Y2383D01*
X87461D01*
X84922Y7461D02*
X90000Y2383D01*
X87461D02*
X90000Y4922D01*
X95078Y2383D02*
X100157D01*
X97618D01*
Y17617D01*
X95078Y15078D01*
X152196Y154342D02*
Y169577D01*
X159813D01*
X162353Y167038D01*
Y161959D01*
X159813Y159420D01*
X152196D01*
X157274D02*
X162353Y154342D01*
X175049D02*
Y169577D01*
X167431Y161959D01*
X177588D01*
X102158Y154342D02*
Y169577D01*
X109775D01*
X112315Y167038D01*
Y161959D01*
X109775Y159420D01*
X102158D01*
X107236D02*
X112315Y154342D01*
X117393Y167038D02*
X119932Y169577D01*
X125011D01*
X127550Y167038D01*
Y164499D01*
X125011Y161959D01*
X122471D01*
X125011D01*
X127550Y159420D01*
Y156881D01*
X125011Y154342D01*
X119932D01*
X117393Y156881D01*
X62280Y154342D02*
Y169577D01*
X69897D01*
X72437Y167038D01*
Y161959D01*
X69897Y159420D01*
X62280D01*
X67358D02*
X72437Y154342D01*
X87672D02*
X77515D01*
X87672Y164499D01*
Y167038D01*
X85133Y169577D01*
X80054D01*
X77515Y167038D01*
X12242Y154342D02*
Y169577D01*
X19859D01*
X22399Y167038D01*
Y161959D01*
X19859Y159420D01*
X12242D01*
X17320D02*
X22399Y154342D01*
X27477D02*
X32555D01*
X30016D01*
Y169577D01*
X27477Y167038D01*
M02*
