G04*
G04 #@! TF.GenerationSoftware,Altium Limited,Altium Designer,25.7.1 (20)*
G04*
G04 Layer_Physical_Order=2*
G04 Layer_Color=16711680*
%FSLAX44Y44*%
%MOMM*%
G71*
G04*
G04 #@! TF.SameCoordinates,1FEF7C1C-ADAA-44E2-BD5A-CF82835D82FB*
G04*
G04*
G04 #@! TF.FilePolarity,Positive*
G04*
G01*
G75*
%ADD21C,0.5000*%
%ADD22O,1.0000X2.0000*%
%ADD23O,1.0000X2.0000*%
%ADD24C,1.5000*%
%ADD25C,1.2000*%
%ADD26R,1.5000X1.5000*%
%ADD27C,1.0000*%
D21*
X239140Y65427D02*
Y95460D01*
X220000Y114600D02*
X239140Y95460D01*
X224405Y50692D02*
X239140Y65427D01*
X218392Y50692D02*
X224405D01*
X202700Y35000D02*
X218392Y50692D01*
X202700Y30000D02*
Y35000D01*
X201743Y29043D02*
X202700Y30000D01*
X201743Y22545D02*
Y29043D01*
X30000Y13647D02*
Y20000D01*
Y13647D02*
X32660Y10987D01*
X184159Y4960D02*
X201743Y22545D01*
X38541Y4960D02*
X184159D01*
X32660Y10841D02*
Y10987D01*
Y10841D02*
X38541Y4960D01*
X120500Y85787D02*
Y101000D01*
X161608Y50692D02*
X177300Y35000D01*
Y30000D02*
Y35000D01*
X120500Y85787D02*
X155595Y50692D01*
X161608D01*
X94710Y129421D02*
X94750Y129460D01*
X94710Y116960D02*
Y129421D01*
X81500Y103750D02*
X94710Y116960D01*
D22*
X202700Y30000D02*
D03*
X177300D02*
D03*
X30000Y20000D02*
D03*
X55400D02*
D03*
D23*
X190000Y30000D02*
D03*
X42700Y20000D02*
D03*
D24*
X220000Y114600D02*
D03*
D25*
X228100Y70000D02*
D03*
X108100D02*
D03*
X31900D02*
D03*
X151900D02*
D03*
D26*
X220000Y140000D02*
D03*
D27*
X120500Y101000D02*
D03*
X94750Y129460D02*
D03*
X81500Y103750D02*
D03*
M02*
